<?xml version="1.0" encoding="UTF-8"?><svg id="a" xmlns="http://www.w3.org/2000/svg" viewBox="0 0 192 167.3"><style>@media(prefers-color-scheme:dark){#a path{filter:invert(100%);}}</style><path d="m0,47.66c4.02.03,8.05.05,12.07.08l-.14-.15v36.14l.14-.15c-4.02.03-8.05.05-12.07.08v-36Z"/><path d="m179.93,59.74c4.02-.03,8.05-.05,12.07-.08v24c-4.02-.03-8.05-.05-12.07-.08l.14.15v-24.14l-.14.15Z"/><path d="m179.93,83.58v11.95h-11.74v12.23h-12.07l.16.14v-11.83h-24.07v11.52h-12.28l.14.15v-11.72h-12.14v11.72l.14-.14h-12.14l.15.14v-11.74h-23.89v11.77h-12.07l.16.14v-11.83h-24.06v11.51h-12.27l.14.14v-11.89h-12.02v-12.24l-.14.15h168.14l-.14-.15v-.02Z"/><path d="m23.94,107.57v11.73h-11.61v-11.58h11.75l-.14-.14h0Z"/><path d="m48.08,119.71v-11.83h12.19s-.16-.14-.15-.13v11.82h-12.19l.14.14h.01Z"/><path d="m84.08,119.73v-12h12l-.15-.14v12.14l.14-.14h-12.14l.15.14Z"/><path d="m119.93,107.58v12h-12l.14.15v-12.14l-.14.14h12.14s-.14-.15-.14-.15Z"/><path d="m144.28,119.9v-12.01h11.99s-.16-.14-.15-.13v12.01h-12.01l.16.14h0Z"/><path d="m47.94,119.57v12h-12l.14.14v-12h12l-.14-.14Z"/><path d="m84.07,131.58h-11.72v-11.85h11.73l-.15-.14v12.14l.14-.15Z"/><path d="m107.93,119.58v12h-12l.14.15v-12.14l-.14.14h12.14l-.14-.15Z"/><path d="m132.08,131.71v-11.83h12.19s-.16-.14-.15-.13v11.82h-12.19l.14.14h0Z"/><path d="m35.94,131.57v11.73h-11.61v-11.58h11.75l-.14-.14h0Z"/><path d="m95.93,131.58v11.99h-11.99l.14.14c0-4.04-.01-8.09-.02-12.13l-.14.15h12.14l-.14-.15h0Z"/><path d="m131.94,131.57v12h-12l.14.14v-12h12l-.14-.14Z"/><path d="m83.94,143.57v12h-12l.14.14v-12h12l-.14-.14Z"/><path d="m119.94,143.57v11.73h-11.61v-11.58h11.75l-.14-.14h0Z"/><path d="m71.94,155.57v11.73h-11.61v-11.58h11.75l-.14-.14h0Z"/><path d="m48.08,11.73V0h47.84v11.73l.15-.14h-48.14l.15.14Z"/><path d="m131.93,23.74h23.83v11.76h12.16v12.23l.15-.14h-24.18v-12.11h-11.82v-11.89l-.14.15h0Z"/><path d="m24.08,35.73v-11.87h11.78v-12.13h12.22l-.15-.14v24h-24l.15.14Z"/><path d="m95.92,11.73h36.01v12.01l.14-.15h-36v-12s-.15.14-.15.14Z"/><path d="m167.92,47.73h12.01v12.01l.14-.15h-12v-12l-.15.14Z"/><path d="m12.07,47.74v-12.01h12.01l-.15-.14v12h-12s.14.15.14.15Z"/></svg>