<svg xmlns="http://www.w3.org/2000/svg" viewBox="0 0 510 159.7"><path d="M346.4 137.6h22.7v22h-22.7zM307.3 0h22v22h-22zM487.3 137.6H510v22h-22.7zM217.8 148.3h58.6v11.3h-58.6zM167.2 109.4c-7.1 0-13.3.1-13.3.1L141.5 137h-13.7V48h-22.1v89l10.3 22.7h37.5l12.1-26.6h1.6l2.5 26.6h20.1V47.9h-22.7v61.5zM74 47.9H36.6L21.9 66.2l-1.7-18.3H0v111.7h21.9V96.2L44 70.6h18.1v89.1h22.1v-89zM329.5 47.9h-32.8v20l10.6.2V159.7h22.1v-21.2l.1-7.2V47.9zM447.4 65.7L433.5 48h-37.4l-10.2 22.6v66.3l10.2 22.7h37.6l12.1-26.6h1.6l2.5 26.6H470V0h-22.7v65.7zm-13.2 43.8L421.8 137H408V70.6h18.1l21.3 27.5v11.3c-7.1 0-13.2.1-13.2.1z"/></svg>